<?xml version="1.0" encoding="utf-8"?><svg viewBox="0 0 800 800" xmlns="http://www.w3.org/2000/svg" xmlns:xlink="http://www.w3.org/1999/xlink"><style>:root>svg{display:none}:root>svg:target{display:block}</style><svg viewBox="0 0 24 24" fill="none" id="close-svgrepo-com" xmlns="http://www.w3.org/2000/svg"><path fill="#fff" d="M0 0h24v24H0z"/><path d="M7 17l9.9-9.9M7 7l9.9 9.9" stroke="#000" stroke-linecap="round" stroke-linejoin="round"/></svg><svg fill="none" viewBox="0 0 12 12" id="galka" xmlns="http://www.w3.org/2000/svg"><g clip-path="url(#bclip0_4312_53)"><path d="M4.076 10.298l-3.9-3.9a.6.6 0 010-.848l.848-.849a.6.6 0 01.849 0L4.5 7.33 10.127 1.7a.6.6 0 01.849 0l.848.849a.6.6 0 010 .848l-6.9 6.9a.6.6 0 01-.848 0z" fill="#00B300"/></g><defs><clipPath id="bclip0_4312_53"><path fill="#fff" d="M0 0h12v12H0z"/></clipPath></defs></svg><svg viewBox="-0.5 0 25 25" fill="none" id="left-circle-svgrepo-com" xmlns="http://www.w3.org/2000/svg"><path d="M12 22.42c5.523 0 10-4.477 10-10s-4.477-10-10-10-10 4.477-10 10 4.477 10 10 10z" stroke="#000" stroke-width="1.5" stroke-linecap="round" stroke-linejoin="round"/><path d="M13.41 16.42l-3.06-2.87a1.537 1.537 0 010-2.26l3.06-2.87" stroke="#000" stroke-width="1.5" stroke-linecap="round" stroke-linejoin="round"/></svg><svg viewBox="0 0 32 32" id="magnifier-svgrepo-com" xmlns="http://www.w3.org/2000/svg"><path d="M31.707 30.282l-9.717-9.776a12.45 12.45 0 002.902-8.007c0-6.904-5.596-12.5-12.5-12.5s-12.5 5.596-12.5 12.5 5.596 12.5 12.5 12.5a12.45 12.45 0 008.197-3.067l9.703 9.764a1.001 1.001 0 001.415-1.415zm-19.314-7.266c-5.808 0-10.517-4.709-10.517-10.517S6.584 1.982 12.393 1.982c5.808 0 10.516 4.708 10.516 10.517S18.2 23.016 12.392 23.016z"/></svg><svg viewBox="0 0 24 24" fill="none" id="menu-1-svgrepo-com" xmlns="http://www.w3.org/2000/svg"><path fill-rule="evenodd" clip-rule="evenodd" d="M19.5 8.25h-15v-1.5h15v1.5zM19.5 12.75h-15v-1.5h15v1.5zM19.5 17.25h-15v-1.5h15v1.5z" fill="#080341"/></svg><svg fill="none" viewBox="0 0 12 12" id="player" xmlns="http://www.w3.org/2000/svg"><g clip-path="url(#fclip0_4312_50)"><path d="M1.8 5.4a1.201 1.201 0 000-2.4 1.201 1.201 0 000 2.4zm8.4 0a1.201 1.201 0 000-2.4 1.201 1.201 0 000 2.4zm.6.6H9.6c-.33 0-.628.133-.846.349A2.742 2.742 0 0110.163 8.4H11.4a.6.6 0 00.6-.6v-.6c0-.662-.538-1.2-1.2-1.2zM6 6a2.099 2.099 0 100-4.2A2.099 2.099 0 106 6zm1.44.6h-.156c-.39.188-.823.3-1.284.3a2.96 2.96 0 01-1.284-.3H4.56A2.16 2.16 0 002.4 8.76v.54a.9.9 0 00.9.9h5.4a.9.9 0 00.9-.9v-.54A2.16 2.16 0 007.44 6.6zM3.246 6.35A1.196 1.196 0 002.4 6H1.2C.538 6 0 6.538 0 7.2v.6a.6.6 0 00.6.6h1.236a2.75 2.75 0 011.41-2.051z" fill="#0D86FF"/></g><defs><clipPath id="fclip0_4312_50"><path fill="#fff" d="M0 0h12v12H0z"/></clipPath></defs></svg><svg viewBox="-0.5 0 25 25" fill="none" id="right-circle-svgrepo-com" xmlns="http://www.w3.org/2000/svg"><path d="M12 22.42c5.523 0 10-4.477 10-10s-4.477-10-10-10-10 4.477-10 10 4.477 10 10 10z" stroke="#000" stroke-width="1.5" stroke-linecap="round" stroke-linejoin="round"/><path d="M10.56 8.42l3.06 2.87a1.52 1.52 0 010 2.26l-3.06 2.87" stroke="#000" stroke-width="1.5" stroke-linecap="round" stroke-linejoin="round"/></svg><svg fill="none" viewBox="0 0 12 12" id="server" xmlns="http://www.w3.org/2000/svg"><g clip-path="url(#hclip0_4312_44)"><path d="M.29 3.47l5.46 2.476a.6.6 0 00.5 0l5.459-2.477c.388-.176.388-.762 0-.938L6.249.054a.6.6 0 00-.498 0L.29 2.531c-.388.176-.388.762 0 .938zm11.42 2.068l-1.362-.617-3.789 1.717a1.345 1.345 0 01-1.118 0L1.653 4.921.29 5.538c-.388.176-.388.762 0 .938L5.75 8.95c.159.073.34.073.498 0l5.46-2.474c.388-.176.388-.762 0-.938zm0 2.996l-1.357-.615-3.794 1.72a1.345 1.345 0 01-1.118 0l-3.794-1.72-1.356.615c-.388.175-.388.761 0 .937l5.46 2.475c.159.072.34.072.498 0l5.46-2.475c.388-.176.388-.762 0-.937z" fill="#00B300"/></g><defs><clipPath id="hclip0_4312_44"><path fill="#fff" d="M0 0h12v12H0z"/></clipPath></defs></svg><svg viewBox="0 0 24 24" id="top-minecrafter" xmlns="http://www.w3.org/2000/svg"><circle cx="12" cy="12" r="12" fill="#fff"/><path d="M12 0C5.383 0 0 5.383 0 12s5.383 12 12 12 12-5.383 12-12S18.617 0 12 0zm6.989 10.044l-1.087 6.333a.75.75 0 01-.739.623H6.837a.75.75 0 01-.739-.623l-1.087-6.333a.75.75 0 011.068-.801l2.894 1.409 2.372-4.267c.264-.477 1.047-.477 1.311 0l2.372 4.267 2.894-1.409a.749.749 0 011.067.801z" fill="#090"/></svg></svg>